Coordinates
version=1
nRows=11
nColumns=40
inDegrees=yes

Units are S.I. units (second, meters, Newtons, ...)
Angles are in degrees.

endheader
time	pelvis_tilt	pelvis_list	pelvis_rotation	pelvis_tx	pelvis_ty	pelvis_tz	hip_flexion_r	hip_adduction_r	hip_rotation_r	knee_angle_r	knee_angle_r_beta	ankle_angle_r	subtalar_angle_r	mtp_angle_r	hip_flexion_l	hip_adduction_l	hip_rotation_l	knee_angle_l	knee_angle_l_beta	ankle_angle_l	subtalar_angle_l	mtp_angle_l	lumbar_extension	lumbar_bending	lumbar_rotation	arm_flex_r	arm_add_r	arm_rot_r	elbow_flex_r	pro_sup_r	wrist_flex_r	wrist_dev_r	arm_flex_l	arm_add_l	arm_rot_l	elbow_flex_l	pro_sup_l	wrist_flex_l	wrist_dev_l
     37.37442857	     -7.57878560	     -6.77267357	     -1.37648621	      1.05612953	      0.93316935	      0.40106377	     38.79879364	     -3.95815205	     -8.28706292	     43.96033016	     43.96033016	      3.38849871	    -13.80720122	      2.31902532	     11.99738344	     -6.08100198	     -5.33051050	     19.01372758	     19.01372758	     16.46888363	     -5.39704523	      0.64238738	    -12.57885614	      6.32006375	      1.96021391	      0.06558411	    -17.07322853	     -1.00912649	     22.55196358	     47.34601181	      0.00000000	      0.00000000	      5.50743292	    -14.16999957	    -17.11986597	     72.65667179	     47.90378268	      0.00000000	      0.00000000
     37.38635714	     -7.62767618	     -6.58486196	     -1.69852844	      1.05535563	      0.93301674	      0.40167625	     38.71503108	     -3.85826376	     -8.43576321	     40.28655648	     40.28655648	      3.08117212	    -12.08169869	      1.79247597	     11.21323334	     -5.93792602	     -5.79538872	     18.42031606	     18.42031606	     16.56515466	     -5.05061433	      0.30970465	    -12.61592221	      6.05623962	      1.95870067	     -1.24171419	    -17.32400064	     -1.59150629	     22.30322088	     47.37954124	      0.00000000	      0.00000000	      5.56999688	    -14.48199123	    -17.40255385	     74.91399158	     47.96655595	      0.00000000	      0.00000000
     37.39828571	     -7.61987921	     -6.40441364	     -1.90263307	      1.05482370	      0.93283670	      0.40228373	     38.36476174	     -3.75069451	     -8.70600797	     36.47620340	     36.47620340	      2.96060103	    -10.28153705	      1.63096431	     10.40877162	     -5.77957426	     -6.16529581	     17.87652033	     17.87652033	     16.65645251	     -4.76121083	      0.02169582	    -12.66777080	      5.85951607	      1.85103533	     -2.45131234	    -17.63568526	     -2.08237574	     22.22062457	     47.39944845	      0.00000000	      0.00000000	      5.69615162	    -14.69078955	    -17.66211447	     76.67851087	     48.02004939	      0.00000000	      0.00000000
     37.41021429	     -7.59129794	     -6.19567904	     -2.12082460	      1.05438533	      0.93256175	      0.40308543	     37.90941030	     -3.62155588	     -9.01593420	     32.69357658	     32.69357658	      2.76172969	     -8.28752136	      1.90784389	      9.58150801	     -5.60133303	     -6.54145241	     17.35741486	     17.35741486	     16.78209102	     -4.45409371	     -0.22566583	    -12.71347539	      5.61284742	      1.79400192	     -3.66431878	    -17.86239944	     -2.42481258	     22.20370012	     47.40611074	      0.00000000	      0.00000000	      5.94692308	    -14.92389334	    -17.89269051	     78.26763668	     48.06906556	      0.00000000	      0.00000000
     37.42214286	     -7.57372796	     -5.91612898	     -2.30130785	      1.05410198	      0.93203510	      0.40402663	     37.41894675	     -3.56832280	     -9.44810571	     29.09733792	     29.09733792	      2.56129888	     -6.14277329	      2.36529511	      8.77685781	     -5.36563205	     -6.97957175	     16.85112678	     16.85112678	     16.79250618	     -4.04038599	     -0.91457317	    -12.75015405	      5.23336112	      1.57238499	     -5.12377973	    -18.01137945	     -3.32706126	     23.24068910	     47.38284342	      0.00000000	      0.00000000	      5.81160526	    -15.21933026	    -18.19041350	     80.75221071	     48.14382265	      0.00000000	      0.00000000
     37.43407143	     -7.52785674	     -5.66806542	     -2.41757782	      1.05394804	      0.93146079	      0.40513037	     36.80240860	     -3.43182745	     -9.87022131	     25.63930423	     25.63930423	      2.26306987	     -4.28564774	      3.18967828	      7.95698502	     -5.15191205	     -7.25913222	     16.38843295	     16.38843295	     16.97934323	     -3.67471356	     -1.11673008	    -12.71407840	      4.90931756	      1.53119218	     -6.25548167	    -18.12641112	     -3.48484879	     23.15020612	     47.37893102	      0.00000000	      0.00000000	      6.25360191	    -15.37144082	    -18.33669284	     81.88402852	     48.17975264	      0.00000000	      0.00000000
     37.44600000	     -7.36847031	     -5.34935006	     -2.51804795	      1.05402966	      0.93079713	      0.40636856	     36.09968735	     -3.42227385	    -10.53358885	     22.65466635	     22.65466635	      2.16179917	     -2.08233855	      4.31310967	      6.99868855	     -4.88971669	     -7.72334342	     15.91909139	     15.91909139	     17.16898645	     -3.05778341	     -1.54515721	    -12.81409013	      4.44061311	      1.54934312	     -7.56314677	    -18.16163512	     -3.78544706	     23.61746318	     47.35293392	      0.00000000	      0.00000000	      6.59412092	    -15.54412171	    -18.43908689	     83.75721702	     48.22809026	      0.00000000	      0.00000000
     37.45792857	     -7.32211438	     -5.04738081	     -2.52755811	      1.05412865	      0.92976243	      0.40771119	     35.64941917	     -3.43167023	    -11.21024741	     20.36269294	     20.36269294	      2.61560920	     -0.26105399	      7.21674983	      6.26143735	     -4.68660394	     -8.21036403	     15.59855064	     15.59855064	     17.20990700	     -2.31971419	     -2.60750236	    -12.78913374	      4.01773682	      1.35686338	     -9.36526876	    -18.19100699	     -4.63819506	     26.03250363	     47.22905346	      0.00000000	      0.00000000	      6.60831983	    -15.77199807	    -18.49652712	     86.08839134	     48.29383731	      0.00000000	      0.00000000
     37.46985714	     -7.33559374	     -4.65110799	     -2.52384203	      1.05430693	      0.92854312	      0.40925389	     35.21991484	     -3.44718860	    -11.61573141	     18.33105727	     18.33105727	      2.23680637	      0.67184894	      7.96193263	      5.62265878	     -4.35013802	     -8.42385653	     15.35180267	     15.35180267	     17.45835065	     -1.99004276	     -2.81597646	    -12.55586908	      3.44420421	      1.25379867	    -10.28145477	    -18.01290159	     -4.65982410	     25.94762697	     47.21801512	      0.00000000	      0.00000000	      7.20793398	    -16.06471534	    -18.63949840	     86.93021702	     48.32371557	      0.00000000	      0.00000000
     37.48178571	     -7.06030270	     -4.46099255	     -2.45471728	      1.05498079	      0.92768946	      0.41083961	     34.40933000	     -3.41737280	    -12.62351112	     16.79822112	     16.79822112	      2.37033695	      2.24448577	      9.41271004	      4.50323938	     -4.28210416	     -9.03338131	     14.86450377	     14.86450377	     17.70784664	     -0.85350085	     -3.45832510	    -12.70289154	      3.11830538	      1.32400567	    -11.69304420	    -17.95647710	     -4.93919530	     27.03505837	     47.15014132	      0.00000000	      0.00000000	      7.50274102	    -15.99383088	    -18.44967120	     89.17452938	     48.36460905	      0.00000000	      0.00000000
     37.49371429	     -6.98748412	     -4.22376084	     -2.33215007	      1.05560674	      0.92634207	      0.41253770	     33.94735511	     -3.41715327	    -13.21803793	     15.93701988	     15.93701988	      2.69824245	      2.81743885	     11.30194031	      3.77984583	     -4.20117407	     -9.50159974	     14.68944312	     14.68944312	     17.96682888	      0.12712832	     -4.28324056	    -12.59800462	      2.75980828	      1.23829843	    -13.34869473	    -17.90187414	     -5.30680962	     29.40166712	     46.99671763	      0.00000000	      0.00000000	      7.76360751	    -16.12643365	    -18.32538541	     90.90223477	     48.41139397	      0.00000000	      0.00000000
